<svg width="299" height="226" viewBox="0 0 299 226" fill="none" xmlns="http://www.w3.org/2000/svg">
<g clip-path="url(#clip0_26_119)">
<path d="M140.509 189.722C140.509 189.722 144.315 183.477 149.201 187.17C154.086 190.862 163.134 197.092 163.134 197.092C163.134 197.092 164.988 201.076 160.191 199.58C155.394 198.083 139.736 195.674 139.736 195.674L140.509 189.722Z" fill="#FEB8B8"/>
<path d="M34.1595 150.064C35.3722 140.31 41.4157 130.7 50.7157 127.526C47.048 137.565 47.0488 148.578 50.7179 158.617C52.147 162.483 54.1389 166.634 52.7947 170.531C51.9584 172.956 49.9123 174.811 47.6253 175.971C45.3381 177.131 42.7998 177.683 40.2933 178.225L39.8 178.633C35.8209 169.646 32.9468 159.817 34.1595 150.064Z" fill="#F0F0F0"/>
<path d="M50.808 127.71C45.3921 133.78 42.026 141.402 41.1877 149.494C40.9763 151.233 41.0403 152.994 41.3772 154.713C41.7596 156.377 42.5804 157.908 43.7544 159.147C44.8259 160.325 46.0582 161.405 46.8248 162.822C47.2065 163.554 47.4292 164.357 47.4785 165.181C47.5278 166.005 47.4024 166.829 47.1107 167.601C46.4339 169.543 45.0998 171.125 43.7415 172.628C42.2333 174.296 40.6403 176.004 39.9992 178.216C39.9215 178.484 39.5104 178.348 39.5879 178.08C40.7033 174.233 44.4376 172.047 46.2184 168.582C47.0494 166.965 47.3982 165.087 46.6192 163.38C45.9379 161.888 44.6681 160.773 43.573 159.59C42.41 158.398 41.5565 156.939 41.0871 155.341C40.6637 153.645 40.532 151.889 40.6976 150.148C41.008 146.224 41.9333 142.373 43.4396 138.737C45.1358 134.577 47.5309 130.738 50.5214 127.386C50.7066 127.178 50.9919 127.504 50.808 127.71Z" fill="white"/>
<path d="M41.3043 146.873C39.966 146.548 38.7868 145.757 37.9772 144.643C37.1676 143.529 36.7805 142.163 36.8848 140.789C36.9069 140.512 37.3396 140.533 37.3175 140.811C37.2179 142.09 37.5787 143.362 38.3347 144.398C39.0907 145.434 40.1921 146.166 41.4401 146.461C41.7112 146.526 41.5739 146.937 41.3043 146.873Z" fill="white"/>
<path d="M43.1326 158.622C45.5497 157.178 47.334 154.876 48.1298 152.175C48.2084 151.908 48.6196 152.044 48.541 152.311C47.7077 155.12 45.846 157.512 43.3274 159.009C43.0872 159.151 42.8937 158.763 43.1326 158.622Z" fill="white"/>
<path d="M45.5376 134.987C46.0292 135.221 46.5711 135.329 47.1147 135.301C47.6583 135.274 48.1866 135.111 48.652 134.829C48.8902 134.684 49.0835 135.071 48.8468 135.216C48.3311 135.525 47.7475 135.704 47.147 135.736C46.5464 135.767 45.9472 135.652 45.4018 135.399C45.3483 135.379 45.3044 135.34 45.2788 135.289C45.2532 135.238 45.2479 135.18 45.264 135.125C45.2823 135.071 45.3213 135.026 45.3725 135C45.4237 134.974 45.483 134.969 45.5376 134.987Z" fill="white"/>
<path d="M79.0635 144.947C78.9173 145.042 78.7712 145.137 78.6248 145.236C76.6662 146.524 74.8155 147.969 73.0909 149.557C72.9556 149.678 72.8203 149.802 72.6888 149.926C68.5746 153.796 65.2145 158.397 62.7794 163.494C61.8123 165.523 61.0009 167.622 60.3523 169.775C59.4567 172.747 58.722 176.041 56.9492 178.472C56.7671 178.728 56.5693 178.972 56.357 179.203H40.336C40.2996 179.185 40.263 179.171 40.2264 179.152L39.5867 179.182C39.6124 179.068 39.6415 178.951 39.6672 178.838C39.6818 178.772 39.7001 178.706 39.7147 178.64C39.7256 178.597 39.7367 178.553 39.744 178.512C39.7475 178.498 39.7513 178.483 39.7549 178.472C39.7622 178.432 39.7732 178.395 39.7806 178.359C39.9414 177.704 40.1071 177.05 40.2776 176.396C40.2776 176.392 40.2776 176.392 40.2812 176.388C41.5936 171.405 43.3334 166.488 45.7641 161.991C45.8373 161.856 45.9103 161.717 45.9907 161.582C47.0976 159.561 48.3678 157.634 49.7886 155.82C50.5698 154.829 51.4006 153.879 52.2779 152.972C54.5491 150.633 57.1739 148.667 60.0562 147.144C65.8023 144.11 72.4548 142.947 78.5957 144.801C78.7528 144.848 78.9064 144.896 79.0635 144.947Z" fill="#F0F0F0"/>
<path d="M79.0274 145.15C71.0496 146.735 63.7738 150.794 58.2336 156.75C57.0181 158.011 56.009 159.456 55.2433 161.031C54.5471 162.59 54.2809 164.307 54.4723 166.003C54.6191 167.588 54.9527 169.193 54.7116 170.786C54.576 171.6 54.2701 172.376 53.8137 173.063C53.3573 173.751 52.7608 174.334 52.0634 174.774C50.3541 175.917 48.3363 176.377 46.3474 176.759C44.139 177.182 41.8386 177.587 39.9955 178.967C39.7722 179.134 39.5259 178.778 39.7489 178.611C42.9555 176.211 47.2526 176.714 50.7606 175.02C52.3974 174.229 53.806 172.94 54.2115 171.108C54.566 169.506 54.2234 167.851 54.061 166.247C53.8499 164.595 54.0466 162.916 54.6338 161.358C55.3167 159.749 56.2685 158.267 57.4484 156.977C60.0583 154.031 63.1151 151.514 66.5069 149.517C70.3653 147.217 74.5886 145.594 78.9942 144.718C79.2669 144.664 79.2984 145.097 79.0274 145.15Z" fill="white"/>
<path d="M59.9046 154.727C59.0317 153.662 58.5658 152.321 58.5902 150.943C58.6146 149.566 59.1276 148.243 60.0377 147.209C60.2226 147 60.5553 147.278 60.3701 147.487C59.5209 148.448 59.0431 149.681 59.0231 150.963C59.003 152.246 59.4419 153.493 60.2607 154.48C60.4383 154.695 60.0813 154.941 59.9046 154.727Z" fill="white"/>
<path d="M54.2921 165.209C57.091 165.512 59.9012 164.749 62.1624 163.071C62.3863 162.905 62.6326 163.261 62.409 163.428C60.0527 165.169 57.1266 165.957 54.2147 165.635C53.9372 165.604 54.0161 165.178 54.2921 165.209Z" fill="white"/>
<path d="M70.4391 147.787C70.691 148.269 71.0588 148.682 71.5094 148.987C71.9601 149.292 72.4795 149.481 73.021 149.536C73.2988 149.563 73.2196 149.989 72.9436 149.962C72.3456 149.899 71.7722 149.69 71.2736 149.353C70.7749 149.017 70.3662 148.564 70.0831 148.033C70.0522 147.985 70.0407 147.928 70.0508 147.872C70.061 147.816 70.0921 147.766 70.1378 147.732C70.1851 147.699 70.2433 147.687 70.2997 147.697C70.3561 147.708 70.4062 147.74 70.4391 147.787Z" fill="white"/>
<path d="M163.37 214.707C163.84 210.927 166.182 207.202 169.786 205.972C168.365 209.863 168.365 214.131 169.787 218.022C170.341 219.52 171.113 221.129 170.592 222.639C170.219 223.572 169.502 224.327 168.589 224.747C167.683 225.158 166.728 225.452 165.747 225.621L165.556 225.779C164.014 222.296 162.9 218.487 163.37 214.707Z" fill="#F0F0F0"/>
<path d="M169.822 206.044C167.723 208.396 166.419 211.35 166.094 214.486C166.012 215.16 166.037 215.842 166.167 216.509C166.315 217.153 166.634 217.747 167.089 218.227C167.541 218.652 167.941 219.13 168.278 219.651C168.426 219.935 168.513 220.246 168.532 220.566C168.551 220.885 168.502 221.204 168.389 221.503C168.089 222.234 167.645 222.896 167.084 223.452C166.499 224.098 165.882 224.76 165.633 225.617C165.603 225.721 165.444 225.668 165.474 225.565C165.906 224.073 167.353 223.226 168.043 221.883C168.221 221.582 168.328 221.243 168.355 220.894C168.382 220.544 168.328 220.193 168.199 219.868C167.886 219.318 167.487 218.822 167.018 218.399C166.568 217.937 166.237 217.371 166.055 216.752C165.891 216.095 165.84 215.414 165.904 214.74C166.024 213.219 166.383 211.726 166.967 210.317C167.624 208.705 168.552 207.217 169.711 205.918C169.783 205.837 169.893 205.964 169.822 206.044Z" fill="white"/>
<path d="M166.139 213.47C165.62 213.344 165.163 213.038 164.85 212.606C164.536 212.174 164.386 211.645 164.426 211.113C164.435 211.005 164.602 211.013 164.594 211.121C164.555 211.616 164.695 212.11 164.988 212.511C165.281 212.913 165.708 213.196 166.192 213.311C166.297 213.336 166.243 213.495 166.139 213.47Z" fill="white"/>
<path d="M166.848 218.023C167.784 217.464 168.476 216.572 168.784 215.525C168.815 215.421 168.974 215.474 168.944 215.578C168.621 216.667 167.899 217.593 166.923 218.173C166.83 218.229 166.755 218.078 166.848 218.023Z" fill="white"/>
<path d="M167.78 208.864C167.97 208.954 168.18 208.996 168.391 208.986C168.602 208.975 168.806 208.912 168.987 208.803C169.079 208.746 169.154 208.897 169.062 208.953C168.862 209.072 168.636 209.142 168.403 209.154C168.171 209.166 167.938 209.121 167.727 209.023C167.706 209.016 167.689 209.001 167.679 208.981C167.669 208.961 167.667 208.938 167.674 208.917C167.681 208.896 167.696 208.879 167.716 208.869C167.735 208.859 167.758 208.857 167.78 208.864Z" fill="white"/>
<path d="M180.773 212.724C180.716 212.761 180.659 212.797 180.603 212.836C179.844 213.335 179.126 213.895 178.458 214.51C178.406 214.557 178.353 214.605 178.302 214.654C176.708 216.153 175.406 217.936 174.462 219.912C174.087 220.698 173.773 221.512 173.521 222.346C173.174 223.498 172.889 224.774 172.202 225.717C172.132 225.816 172.055 225.91 171.973 226H165.764C165.75 225.993 165.735 225.987 165.721 225.98L165.473 225.991C165.483 225.948 165.495 225.902 165.505 225.858C165.51 225.833 165.517 225.807 165.523 225.782C165.527 225.765 165.531 225.748 165.534 225.732C165.536 225.727 165.537 225.721 165.539 225.717C165.541 225.701 165.546 225.687 165.549 225.673C165.611 225.419 165.675 225.165 165.741 224.912L165.743 224.909C166.228 222.972 166.941 221.099 167.867 219.329C167.896 219.277 167.924 219.223 167.955 219.171C168.384 218.387 168.877 217.641 169.427 216.938C169.73 216.554 170.052 216.185 170.392 215.834C171.272 214.928 172.289 214.165 173.406 213.575C175.633 212.399 178.211 211.949 180.591 212.667C180.652 212.686 180.712 212.704 180.773 212.724Z" fill="#F0F0F0"/>
<path d="M180.759 212.803C177.667 213.417 174.847 214.99 172.7 217.298C172.229 217.787 171.838 218.347 171.541 218.957C171.271 219.561 171.168 220.227 171.242 220.884C171.348 221.496 171.379 222.119 171.335 222.738C171.283 223.053 171.164 223.354 170.987 223.62C170.81 223.887 170.579 224.113 170.309 224.283C169.629 224.686 168.876 224.947 168.093 225.053C167.238 225.217 166.346 225.374 165.632 225.908C165.545 225.973 165.45 225.835 165.536 225.77C166.779 224.84 168.444 225.035 169.804 224.379C170.128 224.245 170.416 224.038 170.648 223.776C170.88 223.513 171.049 223.201 171.141 222.863C171.222 222.236 171.202 221.6 171.083 220.979C171.001 220.338 171.077 219.688 171.305 219.084C171.57 218.46 171.938 217.886 172.396 217.386C173.407 216.244 174.592 215.269 175.906 214.495C177.402 213.604 179.038 212.975 180.746 212.635C180.852 212.614 180.864 212.782 180.759 212.803Z" fill="white"/>
<path d="M173.348 216.514C173.009 216.101 172.829 215.582 172.838 215.048C172.848 214.514 173.047 214.001 173.399 213.6C173.471 213.52 173.6 213.627 173.528 213.708C173.199 214.081 173.014 214.558 173.006 215.055C172.998 215.552 173.168 216.036 173.486 216.419C173.555 216.502 173.416 216.597 173.348 216.514Z" fill="white"/>
<path d="M171.172 220.576C172.257 220.694 173.346 220.398 174.223 219.748C174.309 219.684 174.405 219.822 174.318 219.886C173.405 220.561 172.271 220.866 171.142 220.742C171.035 220.73 171.066 220.565 171.172 220.576Z" fill="white"/>
<path d="M177.43 213.824C177.528 214.011 177.67 214.171 177.845 214.289C178.02 214.408 178.221 214.481 178.431 214.502C178.539 214.513 178.508 214.678 178.401 214.667C178.169 214.643 177.947 214.562 177.754 214.432C177.56 214.301 177.402 214.126 177.292 213.92C177.28 213.901 177.276 213.879 177.28 213.857C177.284 213.836 177.296 213.816 177.314 213.803C177.332 213.791 177.354 213.786 177.376 213.79C177.398 213.794 177.418 213.806 177.43 213.824Z" fill="white"/>
<path d="M270.046 134.414C268.182 119.423 258.893 104.652 244.598 99.7729C250.236 115.203 250.235 132.131 244.595 147.561C242.399 153.503 239.337 159.884 241.403 165.874C242.688 169.6 245.833 172.452 249.349 174.234C252.864 176.017 256.766 176.867 260.618 177.7L261.376 178.327C267.493 164.514 271.91 149.406 270.046 134.414Z" fill="#F0F0F0"/>
<path d="M244.456 100.056C252.781 109.385 257.955 121.101 259.243 133.539C259.503 136.205 259.535 138.932 258.952 141.56C258.364 144.118 257.103 146.471 255.298 148.376C253.651 150.186 251.757 151.846 250.579 154.025C249.337 156.321 249.289 158.93 250.139 161.37C251.18 164.354 253.23 166.787 255.318 169.096C257.636 171.66 260.085 174.286 261.07 177.686C261.19 178.097 261.821 177.888 261.702 177.477C259.988 171.563 254.248 168.204 251.511 162.877C250.234 160.392 249.697 157.506 250.895 154.882C251.942 152.588 253.894 150.874 255.577 149.056C257.345 147.147 258.7 145.053 259.398 142.525C260.112 139.94 260.187 137.206 259.997 134.544C259.52 128.513 258.097 122.594 255.782 117.004C253.175 110.61 249.494 104.709 244.897 99.5569C244.612 99.2382 244.174 99.7396 244.456 100.056Z" fill="white"/>
<path d="M259.064 129.509C261.121 129.01 262.934 127.795 264.178 126.083C265.422 124.37 266.018 122.27 265.857 120.159C265.823 119.732 265.158 119.765 265.192 120.193C265.345 122.158 264.791 124.114 263.629 125.706C262.467 127.299 260.774 128.423 258.856 128.877C258.439 128.976 258.65 129.608 259.064 129.509Z" fill="white"/>
<path d="M256.254 147.568C252.539 145.349 249.796 141.812 248.573 137.66C248.452 137.249 247.82 137.458 247.941 137.869C249.222 142.187 252.083 145.863 255.955 148.163C256.324 148.382 256.621 147.786 256.254 147.568Z" fill="white"/>
<path d="M252.557 111.241C251.802 111.6 250.969 111.766 250.133 111.723C249.298 111.681 248.486 111.432 247.77 110.998C247.404 110.774 247.107 111.37 247.471 111.593C248.264 112.068 249.161 112.342 250.084 112.391C251.007 112.44 251.928 112.262 252.766 111.873C252.848 111.843 252.916 111.783 252.955 111.705C252.995 111.627 253.003 111.537 252.978 111.453C252.95 111.369 252.89 111.3 252.811 111.26C252.733 111.221 252.641 111.214 252.557 111.241Z" fill="white"/>
<path d="M201.027 126.55C201.251 126.696 201.476 126.842 201.701 126.994C204.711 128.974 207.556 131.195 210.207 133.636C210.415 133.821 210.623 134.012 210.825 134.203C217.149 140.152 222.313 147.223 226.056 155.057C227.543 158.176 228.79 161.403 229.787 164.711C231.163 169.28 232.292 174.343 235.017 178.08C235.297 178.473 235.601 178.848 235.928 179.203H260.553C260.609 179.175 260.665 179.153 260.721 179.125L261.704 179.17C261.665 178.996 261.62 178.816 261.581 178.641C261.558 178.54 261.53 178.439 261.508 178.338C261.491 178.271 261.474 178.203 261.463 178.141C261.457 178.119 261.451 178.096 261.446 178.08C261.435 178.018 261.418 177.962 261.406 177.905C261.159 176.9 260.905 175.894 260.642 174.888C260.642 174.882 260.642 174.882 260.637 174.877C258.62 167.217 255.946 159.659 252.209 152.747C252.097 152.539 251.985 152.326 251.861 152.118C250.16 149.012 248.207 146.05 246.024 143.262C244.823 141.739 243.546 140.278 242.197 138.884C238.706 135.29 234.672 132.267 230.242 129.927C221.41 125.263 211.185 123.476 201.746 126.325C201.504 126.398 201.268 126.471 201.027 126.55Z" fill="#F0F0F0"/>
<path d="M201.082 126.862C213.344 129.298 224.528 135.537 233.043 144.692C234.856 146.664 236.523 148.823 237.639 151.272C238.709 153.668 239.119 156.306 238.824 158.914C238.599 161.351 238.086 163.817 238.457 166.266C238.847 168.848 240.38 170.96 242.527 172.395C245.154 174.152 248.256 174.859 251.313 175.446C254.707 176.097 258.243 176.72 261.076 178.84C261.419 179.097 261.798 178.549 261.455 178.293C256.526 174.603 249.921 175.378 244.529 172.773C242.014 171.558 239.849 169.577 239.225 166.761C238.68 164.298 239.207 161.754 239.457 159.289C239.719 156.701 239.54 154.212 238.576 151.774C237.59 149.279 236.004 147.051 234.25 145.041C230.238 140.512 225.54 136.643 220.327 133.574C214.396 130.039 207.905 127.544 201.133 126.198C200.714 126.115 200.666 126.78 201.082 126.862Z" fill="white"/>
<path d="M230.475 141.582C231.816 139.945 232.532 137.883 232.495 135.767C232.457 133.65 231.669 131.615 230.27 130.026C229.986 129.706 229.475 130.132 229.759 130.453C231.064 131.93 231.799 133.826 231.83 135.797C231.861 137.768 231.186 139.686 229.927 141.203C229.654 141.533 230.203 141.91 230.475 141.582Z" fill="white"/>
<path d="M239.101 157.693C234.799 158.159 230.48 156.986 227.004 154.408C226.66 154.152 226.282 154.7 226.625 154.955C230.247 157.631 234.745 158.843 239.22 158.349C239.647 158.301 239.526 157.646 239.101 157.693Z" fill="white"/>
<path d="M214.283 130.914C213.895 131.656 213.33 132.29 212.637 132.759C211.945 133.229 211.146 133.518 210.314 133.603C209.887 133.645 210.009 134.3 210.433 134.258C211.352 134.16 212.233 133.839 213 133.322C213.766 132.806 214.395 132.109 214.83 131.293C214.877 131.22 214.895 131.131 214.879 131.045C214.864 130.959 214.816 130.882 214.746 130.83C214.673 130.78 214.584 130.761 214.497 130.777C214.41 130.793 214.333 130.842 214.283 130.914Z" fill="white"/>
<path d="M298.754 179.569H0.365526C0.268582 179.569 0.175609 179.531 0.10706 179.462C0.0385104 179.393 0 179.3 0 179.203C0 179.106 0.0385104 179.014 0.10706 178.945C0.175609 178.876 0.268582 178.838 0.365526 178.838H298.634C298.731 178.838 298.824 178.876 298.893 178.945C298.961 179.014 299 179.106 299 179.203C299 179.405 298.956 179.569 298.754 179.569Z" fill="#CACACA"/>
<path d="M104.66 211.742H38.7457C38.6488 211.742 38.5558 211.703 38.4873 211.635C38.4187 211.566 38.3802 211.473 38.3802 211.376C38.3802 211.279 38.4187 211.186 38.4873 211.118C38.5558 211.049 38.6488 211.01 38.7457 211.01H104.54C104.637 211.01 104.73 211.049 104.799 211.118C104.867 211.186 104.906 211.279 104.906 211.376C104.906 211.578 104.862 211.742 104.66 211.742Z" fill="#CACACA"/>
<path d="M208.104 226H142.19C142.093 226 142 225.961 141.931 225.893C141.862 225.824 141.824 225.731 141.824 225.634C141.824 225.537 141.862 225.444 141.931 225.376C142 225.307 142.093 225.269 142.19 225.269H207.984C208.081 225.269 208.174 225.307 208.243 225.376C208.311 225.444 208.35 225.537 208.35 225.634C208.35 225.836 208.305 226 208.104 226Z" fill="#CACACA"/>
<path d="M270.243 211.376H204.329C204.232 211.376 204.139 211.338 204.07 211.269C204.002 211.2 203.963 211.107 203.963 211.01C203.963 210.914 204.002 210.821 204.07 210.752C204.139 210.683 204.232 210.645 204.329 210.645H270.124C270.22 210.645 270.313 210.683 270.382 210.752C270.451 210.821 270.489 210.914 270.489 211.01C270.489 211.212 270.445 211.376 270.243 211.376Z" fill="#CACACA"/>
<path d="M121.815 197.483C117.72 197.483 113.971 197.091 110.993 196.163C107.453 195.061 105.23 193.278 104.386 190.86C103.989 189.834 103.87 188.72 104.042 187.633C104.214 186.546 104.67 185.524 105.364 184.67C110.601 177.844 128.775 175.919 131.213 175.692L136.16 166.322C136.477 164.087 134.979 162.394 137.567 162.352L168.174 161.936C170.715 161.883 169.994 163.457 170.429 165.637L175.092 173.963L155.022 182.435L158.057 189.83L157.859 189.945C151.985 193.353 135.093 197.483 121.815 197.483Z" fill="#2F2E41"/>
<path d="M172.314 174.318C172.314 174.318 200.342 171.11 198.514 183.943C196.686 196.776 175.36 205.865 143.066 183.943L146.722 177.526C146.722 177.526 158.756 176.928 166.068 173.719L172.314 174.318Z" fill="#2F2E41"/>
<path d="M132.632 116.181C132.632 116.181 127.305 115.212 125.852 123.447C124.399 131.681 122.072 151.187 122.072 151.187L114.846 176.243C113.994 176.695 113.288 177.381 112.811 178.22C112.333 179.059 112.105 180.016 112.151 180.98C112.198 181.944 112.517 182.875 113.073 183.664C113.629 184.453 114.397 185.067 115.289 185.436C116.181 185.804 117.159 185.911 118.11 185.744C119.06 185.577 119.943 185.144 120.656 184.493C121.369 183.843 121.883 183.003 122.136 182.072C122.39 181.141 122.374 180.157 122.089 179.235L131.758 152.642L133.601 129.746V117.748C133.601 117.423 133.51 117.104 133.339 116.827C133.168 116.55 132.923 116.326 132.632 116.181Z" fill="#FEB8B8"/>
<path d="M170.129 116.181C170.129 116.181 175.457 115.212 176.91 123.447C178.362 131.681 180.69 151.187 180.69 151.187L187.916 176.243C188.768 176.695 189.474 177.381 189.951 178.22C190.428 179.059 190.657 180.016 190.611 180.98C190.564 181.944 190.244 182.875 189.689 183.664C189.133 184.453 188.364 185.067 187.473 185.436C186.581 185.804 185.603 185.911 184.652 185.744C183.702 185.577 182.818 185.144 182.105 184.493C181.392 183.843 180.879 183.003 180.625 182.072C180.372 181.141 180.388 180.157 180.673 179.235L171.004 152.642L169.161 129.746V117.748C169.161 117.423 169.251 117.104 169.423 116.827C169.594 116.55 169.838 116.326 170.129 116.181Z" fill="#FEB8B8"/>
<path d="M169.723 109.374L159.647 105.605L140.116 105.353L131.709 109.374L134.07 122.947C134.07 122.947 129.303 131.022 134.552 139.097L135.73 167.87C135.73 167.87 154.56 178.792 170.454 165.676L166.862 138.924C166.862 138.924 172.871 126.512 168.213 121.901L169.723 109.374Z" fill="#6C63FF"/>
<path d="M165.619 113.592L169.723 109.374C169.723 109.374 178.681 114.087 178.496 129.848L167.197 126.365L165.619 113.592Z" fill="#6C63FF"/>
<path d="M136.268 113.592L131.908 109.231C131.908 109.231 124.214 115.183 124.398 130.945L134.69 126.365L136.268 113.592Z" fill="#6C63FF"/>
<path d="M164.693 186.604C164.693 186.604 161.554 179.999 156.312 183.165C151.071 186.332 141.426 191.591 141.426 191.591C141.426 191.591 139.17 195.362 144.096 194.37C149.022 193.378 164.845 192.604 164.845 192.604L164.693 186.604Z" fill="#FEB8B8"/>
<path d="M155.973 68.5309C156.017 68.4883 156.064 68.4501 156.107 68.4064C158.912 65.601 159.481 61.6212 157.377 59.5172C155.389 57.5288 151.727 57.9301 148.964 60.3476C146.594 58.091 143.416 57.462 141.36 59.0197C138.988 60.816 139.006 64.8362 141.401 67.9991C141.565 68.2156 141.737 68.4204 141.914 68.6174C138.727 69.7841 135.976 71.9018 134.032 74.6839C132.088 77.466 131.045 80.7782 131.045 84.1723V99.9369C131.045 100.399 131.136 100.857 131.313 101.284C131.49 101.711 131.749 102.099 132.076 102.426C132.403 102.753 132.791 103.012 133.218 103.189C133.645 103.366 134.103 103.457 134.565 103.457H163.696C164.598 103.457 165.463 103.099 166.101 102.461C166.739 101.823 167.097 100.957 167.097 100.055V84.1723C167.097 80.7325 166.025 77.3783 164.032 74.5753C162.038 71.7723 159.222 69.6597 155.973 68.5309Z" fill="#2F2E41"/>
<path d="M159.306 97.8347C164.704 92.4352 164.704 83.681 159.306 78.2816C153.908 72.8821 145.155 72.8821 139.757 78.2816C134.358 83.681 134.358 92.4352 139.757 97.8347C145.155 103.234 153.908 103.234 159.306 97.8347Z" fill="#FFB6B6"/>
<path d="M135.006 79.3616C138.165 81.5392 141.914 82.6981 145.751 82.6828C144.382 83.6318 142.824 84.2729 141.184 84.5618C146.285 85.6562 151.557 85.6858 156.67 84.6488C157.806 84.4666 158.903 84.0898 159.911 83.5352C160.414 83.2545 160.852 82.8711 161.197 82.4099C161.541 81.9488 161.785 81.4202 161.912 80.8587C162.252 78.9174 160.74 77.1537 159.168 75.9651C156.762 74.173 153.987 72.9382 151.045 72.3502C148.103 71.7622 145.067 71.8356 142.157 72.5651C140.257 73.0564 138.353 73.8865 137.119 75.4128C135.885 76.9391 135.519 79.2922 136.695 80.864L135.006 79.3616Z" fill="#2F2E41"/>
<path d="M61.0682 51.7711L61.5038 51.1837L73.1089 59.7935C72.4783 57.871 70.246 51.7764 66.5866 49.3446C62.2148 46.4395 59.139 47.3432 57.4633 49.8659C55.7875 52.3886 56.1464 55.5748 60.5182 58.48C64.2239 60.9427 70.8255 60.6003 72.7516 60.4388L61.0682 51.7711Z" fill="#F2F2F2"/>
<path d="M235.679 4.63289L236.218 5.12735L226.449 15.7763C228.427 15.3488 234.719 13.7621 237.518 10.3748C240.861 6.32801 240.283 3.17431 237.948 1.24495C235.614 -0.684401 232.409 -0.658849 229.065 3.38791C226.231 6.81817 225.885 13.4209 225.845 15.3536L235.679 4.63289Z" fill="#F2F2F2"/>
<path d="M78.1374 118.334L78.6762 118.828L68.9077 129.477C70.885 129.05 77.1775 127.463 79.9763 124.076C83.3197 120.029 82.741 116.875 80.4068 114.946C78.0726 113.017 74.867 113.042 71.5233 117.089C68.6891 120.519 68.3429 127.122 68.3032 129.055L78.1374 118.334Z" fill="#F2F2F2"/>
<path d="M160.738 16.8358L161.371 17.2021L154.134 29.711C155.972 28.8662 161.773 25.9568 163.774 22.0445C166.164 17.3706 164.917 14.4166 162.221 13.0374C159.526 11.6582 156.401 12.3761 154.011 17.05C151.985 21.0119 153.074 27.5333 153.453 29.429L160.738 16.8358Z" fill="#F2F2F2"/>
<path d="M228.36 95.0737L228.993 95.4401L221.756 107.949C223.595 107.104 229.395 104.195 231.396 100.282C233.786 95.6086 232.54 92.6545 229.844 91.2753C227.148 89.8961 224.023 90.614 221.633 95.2879C219.607 99.2498 220.696 105.771 221.075 107.667L228.36 95.0737Z" fill="#F2F2F2"/>
</g>
<defs>
<clipPath id="clip0_26_119">
<rect width="299" height="226" fill="white"/>
</clipPath>
</defs>
</svg>
